<?xml version="1.0" standalone="no"?>
<!DOCTYPE svg PUBLIC "-//W3C//DTD SVG 20010904//EN"
 "http://www.w3.org/TR/2001/REC-SVG-20010904/DTD/svg10.dtd">
<svg version="1.0" xmlns="http://www.w3.org/2000/svg"
 width="1024.000000pt" height="1024.000000pt" viewBox="0 0 1024.000000 1024.000000"
 preserveAspectRatio="xMidYMid meet">
<metadata>
Created by potrace 1.11, written by Peter Selinger 2001-2013
</metadata>
<g transform="translate(0.000000,1024.000000) scale(0.100000,-0.100000)"
fill="#000000" stroke="none">
<path d="M1840 8126 c0 -129 2 -145 18 -150 9 -3 83 -21 165 -40 81 -20 162
-43 180 -52 94 -48 163 -141 187 -254 31 -146 31 -4854 0 -5000 -24 -113 -93
-206 -187 -254 -18 -9 -99 -32 -180 -52 -82 -19 -156 -37 -165 -40 -16 -5 -18
-21 -18 -150 l0 -144 1455 0 1456 0 -3 147 -3 146 -150 36 c-82 20 -172 47
-199 61 -97 47 -162 138 -188 266 -18 86 -18 4882 0 4968 26 128 91 219 188
266 27 14 117 41 199 61 l150 36 3 146 3 147 -1456 0 -1455 0 0 -144z"/>
<path d="M5690 8130 l0 -141 101 -452 c70 -308 103 -479 107 -538 9 -170 -34
-303 -130 -406 -29 -30 -329 -317 -666 -636 l-612 -580 39 -71 c279 -512 640
-1215 1179 -2298 l507 -1017 1088 -1 1088 0 -3 152 -3 151 -152 47 c-84 26
-174 60 -200 76 -77 45 -135 114 -206 247 -269 503 -918 1776 -1407 2759
l-411 827 38 34 c348 312 788 691 978 843 269 215 283 227 709 589 l305 260 1
148 0 147 -1175 0 -1175 0 0 -140z"/>
</g>
</svg>
